<svg xmlns="http://www.w3.org/2000/svg" viewBox="0 0 484.52 757.15"><defs><style>.cls-1{fill:#e5ff00;}.cls-2{fill:#ff581f;}.cls-3{fill:#fff;}.cls-4{fill:#ccc9c8;}.cls-5{fill:#a3c8d8;}.cls-6{opacity:0.94;}.cls-7{fill:#2f3030;}.cls-8{fill:#fff3bf;}.cls-9{fill:#84ff55;}.cls-10{fill:#ffda35;}.cls-11{fill:#ff602a;}.cls-12{font-size:1px;fill:#b0ff1f;font-family:IowanOldStyle-Roman, Iowan Old Style;}.cls-13{letter-spacing:35.72em;}.cls-14{opacity:0.56;}.cls-15{fill:#5b5b54;}.cls-16{fill:#4ae8ff;}</style></defs><g id="Layer_2" data-name="Layer 2"><path class="cls-1" d="M870,589.43c2.57,114.45-21.57,299.81-55,256.21-56-73-63.33-166-98-222.33-11.73-19.06-22.66-27.1-33.2-28.41-41.49-5.16-64.75,59.1-100.52,54.58C530.4,642.81,507.36,506.51,491,503c-28-6-33,8.08-51,8.08-31,0,9.21-239.43,19-271,10-32.14,15.81-50.33,31.4-71.24C528,118.43,590.78,95,662,95c100.93,0,114.12-1.65,193,58.23C977.18,246,868,500.5,870,589.43Z" transform="translate(-428.47 -95)"/></g><g id="Youtube"><path class="cls-2" d="M685.18,186.22c16-21.89,27.94-37.65,47.59-27.45,11.85,6.16,31.8,31.59,23.81,41.21-13.23,15.94-31.77,39-46.09,24.15C701.4,214.73,677.62,196.6,685.18,186.22Z" transform="translate(-428.47 -95)"/><path class="cls-3" d="M710,193.81c-4.34-5.21,18.34-13.17,21.6-9.27,2.7,3.24-6.18,24.56-11.76,19.65A86.1,86.1,0,0,1,710,193.81Z" transform="translate(-428.47 -95)"/></g><g id="laptop"><g id="laptop-2" data-name="laptop"><path class="cls-4" d="M736,260c29-21,34-25.65,59-31,14-3,33,41,29,47-12.58,18.87-52,36-60,36C746.09,312,721.83,270.26,736,260Z" transform="translate(-428.47 -95)"/><path class="cls-4" d="M764.84,301.73C792.73,287.08,796,276.73,820,273c13.47-2.09,37.85,20.81,34,25-12.1,13.17-44.31,37-52,37C784.77,335,751.2,308.89,764.84,301.73Z" transform="translate(-428.47 -95)"/><path class="cls-5" d="M739.9,260.47c26.56-19.2,31.19-23.45,54-28.34,12.82-2.74,30.23,37.48,26.56,43C809,292.35,772.88,308,765.55,308,749.14,308,726.92,269.85,739.9,260.47Z" transform="translate(-428.47 -95)"/></g><g id="program" class="cls-6"><path class="cls-7" d="M757.59,247.93h49.32a.34.34,0,0,1,.34.34v28.61a1.05,1.05,0,0,1-1.05,1.05H758.45a1.2,1.2,0,0,1-1.2-1.2V248.27a.34.34,0,0,1,.34-.34Z" transform="translate(-453.54 339.05) rotate(-30.55)"/><rect class="cls-8" x="749.38" y="249.08" width="50" height="1" rx="0.46" transform="translate(-447.84 333.2) rotate(-30.55)"/><circle class="cls-9" cx="366.58" cy="142.38" r="0.35"/><circle class="cls-10" cx="365.72" cy="142.89" r="0.35"/><circle class="cls-11" cx="364.86" cy="143.4" r="0.35"/><text class="cls-12" transform="translate(326.87 168.85) rotate(-30.55)">import fun<tspan x="0" y="2.4">if not fun():</tspan><tspan x="0" y="3.6" xml:space="preserve">    fun.abort()</tspan><tspan x="0" y="4.8" xml:space="preserve">    print(’life is short’)</tspan><tspan x="0" y="6">else:</tspan><tspan x="0" y="7.2" xml:space="preserve">    fun.enjoy() </tspan><tspan class="cls-13"><tspan x="0" y="8.4">	</tspan><tspan x="0" y="9.6">	</tspan></tspan></text></g><g id="keyboard" class="cls-14"><rect class="cls-15" x="819.89" y="283.54" width="5" height="5" rx="2.08" transform="translate(108.68 -631.63) rotate(51.7)"/><rect class="cls-15" x="823.35" y="287.14" width="5" height="5" rx="2.08" transform="translate(112.83 -632.97) rotate(51.7)"/><rect class="cls-15" x="826.81" y="290.75" width="5" height="5" rx="2.08" transform="translate(116.97 -634.32) rotate(51.7)"/><rect class="cls-15" x="830.27" y="294.36" width="5" height="5" rx="2.08" transform="translate(121.12 -635.66) rotate(51.7)"/><rect class="cls-15" x="815.29" y="286.84" width="5" height="5" rx="2.08" transform="translate(109.52 -626.77) rotate(51.7)"/><rect class="cls-15" x="818.75" y="290.44" width="5" height="5" rx="2.08" transform="translate(113.67 -628.11) rotate(51.7)"/><rect class="cls-15" x="822.22" y="294.05" width="5" height="5" rx="2.08" transform="translate(117.82 -629.46) rotate(51.7)"/><rect class="cls-15" x="825.68" y="297.66" width="5" height="5" rx="2.08" transform="translate(121.96 -630.8) rotate(51.7)"/><rect class="cls-15" x="810.7" y="290.14" width="5" height="5" rx="2.08" transform="translate(110.36 -621.9) rotate(51.7)"/><rect class="cls-15" x="814.16" y="293.75" width="5" height="5" rx="2.08" transform="translate(114.51 -623.25) rotate(51.7)"/><rect class="cls-15" x="817.62" y="297.35" width="5" height="5" rx="2.08" transform="translate(118.66 -624.6) rotate(51.7)"/><rect class="cls-15" x="821.08" y="300.96" width="5" height="5" rx="2.08" transform="translate(122.81 -625.94) rotate(51.7)"/><rect class="cls-15" x="806.1" y="293.44" width="5" height="5" rx="2.08" transform="translate(111.21 -617.04) rotate(51.7)"/><rect class="cls-15" x="809.57" y="297.05" width="5" height="5" rx="2.08" transform="translate(115.36 -618.39) rotate(51.7)"/><rect class="cls-15" x="813.03" y="300.65" width="5" height="5" rx="2.08" transform="translate(119.5 -619.74) rotate(51.7)"/><rect class="cls-15" x="816.49" y="304.26" width="5" height="5" rx="2.08" transform="translate(123.65 -621.08) rotate(51.7)"/><rect class="cls-15" x="801.51" y="296.74" width="5" height="5" rx="2.08" transform="translate(112.05 -612.18) rotate(51.7)"/><rect class="cls-15" x="804.97" y="300.35" width="5" height="5" rx="2.08" transform="translate(116.2 -613.53) rotate(51.7)"/><rect class="cls-15" x="808.43" y="303.95" width="5" height="5" rx="2.08" transform="translate(120.35 -614.88) rotate(51.7)"/><rect class="cls-15" x="811.9" y="307.56" width="5" height="5" rx="2.08" transform="translate(124.49 -616.22) rotate(51.7)"/><rect class="cls-15" x="796.92" y="300.04" width="5" height="5" rx="2.08" transform="translate(112.9 -607.32) rotate(51.7)"/><rect class="cls-15" x="800.38" y="303.65" width="5" height="5" rx="2.08" transform="translate(117.04 -608.67) rotate(51.7)"/><rect class="cls-15" x="803.84" y="307.25" width="5" height="5" rx="2.08" transform="translate(121.19 -610.02) rotate(51.7)"/><rect class="cls-15" x="807.3" y="310.86" width="5" height="5" rx="2.08" transform="translate(125.34 -611.36) rotate(51.7)"/><rect class="cls-15" x="792.32" y="303.34" width="5" height="5" rx="2.08" transform="translate(113.74 -602.46) rotate(51.7)"/><rect class="cls-15" x="795.78" y="306.95" width="5" height="5" rx="2.08" transform="translate(117.89 -603.81) rotate(51.7)"/><rect class="cls-15" x="799.25" y="310.56" width="5" height="5" rx="2.08" transform="translate(122.03 -605.16) rotate(51.7)"/><rect class="cls-15" x="802.71" y="314.16" width="5" height="5" rx="2.08" transform="translate(126.18 -606.5) rotate(51.7)"/><rect class="cls-15" x="787.73" y="306.64" width="5" height="5" rx="2.08" transform="translate(114.58 -597.6) rotate(51.7)"/><rect class="cls-15" x="791.19" y="310.25" width="5" height="5" rx="2.08" transform="translate(118.73 -598.95) rotate(51.7)"/><rect class="cls-15" x="794.65" y="313.86" width="5" height="5" rx="2.08" transform="translate(122.88 -600.3) rotate(51.7)"/><rect class="cls-15" x="798.11" y="317.46" width="5" height="5" rx="2.08" transform="translate(127.02 -601.64) rotate(51.7)"/></g></g><g id="video"><path class="cls-16" d="M503.94,207.52c-8.14,17.07,15.81,43.58,29.4,44.5,10.21.69,10.92-10.53,35.67-25.93,14.25-8.86,25.06-12,26-20.4.74-7-10.13-5.87-4.38-14.59,5.07-7.71,29.8-15.8,41.85-7.63,10.7,7.25-8-29.88-15.69-39C609.69,136,601.4,174,581.34,175.37c-8.18.55-6.68-12.67-15.26-12C545.39,164.94,515.29,183.68,503.94,207.52Z" transform="translate(-428.47 -95)"/><circle class="cls-3" cx="101.94" cy="124.06" r="7.5"/><circle class="cls-3" cx="119.03" cy="111.5" r="7.5"/><circle class="cls-3" cx="136.13" cy="98.94" r="7.5"/></g></svg>