<svg id="Layer_1" data-name="Layer 1" xmlns="http://www.w3.org/2000/svg" xmlns:xlink="http://www.w3.org/1999/xlink" viewBox="0 0 769.41 552.77"><defs><style>.cls-1{fill:url(#linear-gradient);}</style><linearGradient id="linear-gradient" x1="407.22" y1="194.42" x2="560.87" y2="730.26" gradientUnits="userSpaceOnUse"><stop offset="0" stop-color="#fff"/><stop offset="0" stop-color="#fffefe"/><stop offset="0.04" stop-color="#ffe9d6"/><stop offset="0.08" stop-color="#ffd7b4"/><stop offset="0.12" stop-color="#ffc896"/><stop offset="0.17" stop-color="#ffbb7e"/><stop offset="0.22" stop-color="#ffb16c"/><stop offset="0.28" stop-color="#ffaa5f"/><stop offset="0.36" stop-color="#ffa657"/><stop offset="0.53" stop-color="#ffa555"/><stop offset="0.62" stop-color="#ffaa50"/><stop offset="0.73" stop-color="#ffb843"/><stop offset="0.84" stop-color="#ffd02d"/><stop offset="0.95" stop-color="#fff00e"/><stop offset="1" stop-color="#ff0"/></linearGradient></defs><path class="cls-1" d="M695,438.6c98.53,58.29,243.15,176.73,188.47,182.07-91.61,9-174.43-34-240.55-34.27-22.37-.11-35,4.92-41.66,13.18-26.3,32.49,16,86.19-6.77,114.18-33.6,41.37-161.5-11.09-173.12,1-19.89,20.6-10.57,32.28-20.09,47.57C384.92,788.59,202.88,628,181.22,602.94c-22-25.43-34.37-40-43.89-64.31-22.91-58.51-9.62-124.21,28-184.68,53.33-85.69,58.9-97.76,151.41-133.09C460.07,166.13,618.45,393.31,695,438.6Z" transform="translate(-126.05 -212.41)"/></svg>